<svg xmlns="http://www.w3.org/2000/svg" viewBox="0 0 1593.68 317.79"><title>Fichier 13</title><g id="Calque_2" data-name="Calque 2"><g id="Calque_1-2" data-name="Calque 1"><path d="M527.38,83.66V185.28q0,17.4-7.79,30.51a50.68,50.68,0,0,1-22.5,20.09q-14.72,7-34.8,7-30.29,0-47.05-15.52t-16.76-42.49V83.66h33.19V179.8q0,18.16,7.3,26.64t24.17,8.49q16.33,0,23.69-8.54t7.36-26.8V83.66Z" style="fill:#fff"/><path d="M616.06,216.75q8.59,0,20.63-3.76v24.38q-12.25,5.48-30.08,5.48-19.66,0-28.63-9.94t-9-29.81v-57.9H553.32V131.35l18-11L580.82,95h20.95v25.57h33.62v24.6H601.77v57.9q0,7,3.92,10.31T616.06,216.75Z" style="fill:#fff"/><path d="M661.76,89.57q0-16,17.83-16t17.83,16q0,7.63-4.46,11.87t-13.37,4.24Q661.76,105.68,661.76,89.57Zm34.16,151.14H663.16V120.61h32.76Z" style="fill:#fff"/><path d="M765.26,240.71H732.5V73.56h32.76Z" style="fill:#fff"/><path d="M800.44,89.57q0-16,17.83-16t17.83,16q0,7.63-4.46,11.87t-13.37,4.24Q800.44,105.68,800.44,89.57ZM834.6,240.71H801.84V120.61H834.6Z" style="fill:#fff"/><path d="M921.77,216.75q8.59,0,20.63-3.76v24.38q-12.25,5.48-30.08,5.48-19.66,0-28.63-9.94t-9-29.81v-57.9H859V131.35l18-11L886.54,95h20.95v25.57h33.62v24.6H907.48v57.9q0,7,3.92,10.31T921.77,216.75Z" style="fill:#fff"/><path d="M951.69,120.61h35.88l22.67,67.57a93.81,93.81,0,0,1,4,20.84h.64a92,92,0,0,1,4.62-20.84l22.24-67.57h35.13L1026,256.07q-7,18.8-19.93,28.14t-30.24,9.35a76.07,76.07,0,0,1-16.65-1.83v-26a56.06,56.06,0,0,0,12.89,1.4,23.28,23.28,0,0,0,15.2-5.32q6.5-5.32,10.15-16.06l1.93-5.91Z" style="fill:#fff"/><path d="M1088.92,185.71V176.9h51v8.81Z" style="fill:#fff"/><path d="M1244,210.31q0,15.69-11.92,24.12t-33.84,8.43q-23.42,0-37.17-7.2V224.17a82,82,0,0,0,37.17,8.81q17.29,0,26.26-5.75t9-15.31a18.66,18.66,0,0,0-7.14-14.82q-7.15-6-23.47-11.82-17.51-6.34-24.6-10.9a34,34,0,0,1-10.69-10.31,25.89,25.89,0,0,1-3.6-14q0-13.1,11-20.73t30.78-7.63a92.16,92.16,0,0,1,35.88,7.09l-4,9.67q-17.19-7.09-31.9-7.09-14.29,0-22.67,4.73t-8.38,13.11q0,9.13,6.5,14.61T1206.59,176q15.79,5.7,23,10.26a33.46,33.46,0,0,1,10.8,10.37A25.36,25.36,0,0,1,1244,210.31Z" style="fill:#fff"/><path d="M1322.88,242.86q-25,0-39.21-15.79t-14.18-44q0-29,14.72-45.17t40.28-16.17a81,81,0,0,1,29,5.26l-2.9,9.45q-15.15-5-26.32-5-21.49,0-32.55,13.27t-11.06,38.19q0,23.63,11.06,37t30.94,13.37a75.91,75.91,0,0,0,29.54-5.69v9.88Q1341,242.86,1322.88,242.86Z" style="fill:#fff"/><path d="M1453.88,240.71l-2.69-18.48h-.86q-8.81,11.28-18.1,16t-22,4.67q-17.19,0-26.75-8.81T1374,209.66q0-17.08,14.23-26.53t41.2-10l22.24-.64v-7.73q0-16.65-6.77-25.14T1423,131.14q-16.22,0-33.62,9l-4-9.24q19.23-9,38-9,19.23,0,28.74,10t9.51,31.15v77.67Zm-43-7.52q18.69,0,29.49-10.69t10.8-29.7V181.3l-20.41.86q-24.6,1.18-35.07,7.68t-10.47,20.25q0,11,6.71,17T1410.91,233.19Z" style="fill:#fff"/><path d="M1583.16,240.71V165q0-17.62-7.41-25.62t-23-8q-20.95,0-30.67,10.58t-9.72,34.32v64.45h-10.63V123.94h9l2,16h.64q11.38-18.26,40.5-18.26,39.74,0,39.75,42.65v76.38Z" style="fill:#fff"/><path d="M224.77,235.92a7,7,0,0,0-.51-.64l-11.94-11.85-8.64-8.55-8.81-8.72c-2.89-2.85-5.74-5.72-8.64-8.55-2.32-2.27-4.59-4.61-7.12-6.64a31.45,31.45,0,0,0-17.58-6.79,32.69,32.69,0,0,0-17.58,3.45,31.3,31.3,0,0,0-8,5.74l-12.09,12-8.7,8.6-8.75,8.66-8.75,8.66-4.14,4.07a5.62,5.62,0,0,0-.47.6H66.52a2.7,2.7,0,0,1-.62-.15c.21-.17.45-.34.64-.52l7.07-7.12L83,219l8.53-8.53,8.87-8.77,8.64-8.55c2.92-2.89,5.79-5.81,8.75-8.64a112.3,112.3,0,0,1,9.37-8.72A52.3,52.3,0,0,1,148.89,166a49.92,49.92,0,0,1,12.47-.9,51.61,51.61,0,0,1,31.87,12.8c.9.77,1.76,1.59,2.61,2.42l12,11.88,8.7,8.6,8.75,8.66,8.7,8.6,8.81,8.72,8.59,8.49a6.14,6.14,0,0,0,.52.43,2.72,2.72,0,0,1-.62.15Z" style="fill:#fff;stroke:#fff;stroke-miterlimit:10"/><path d="M93.34,81.87c1.46,1.5,2.91,3,4.39,4.48,2.12,2.25,4.44,4.39,6.65,6.58l10.78,10.67,8.64,8.55c2.92,2.89,5.81,5.81,8.75,8.66a55.2,55.2,0,0,0,8.19,7.16A33.24,33.24,0,0,0,174,129.84a31.08,31.08,0,0,0,7.76-5.62q6-5.87,11.88-11.79l8.7-8.6,8.75-8.66,8.75-8.64,4.26-4.18a5.1,5.1,0,0,0,.37-.47h27.12l-8.27,8.27-8.75,8.66-8.7,8.55-8.7,8.6-8.75,8.66c-2.91,2.87-5.75,5.77-8.7,8.6a99.35,99.35,0,0,1-9.64,8.81,52.6,52.6,0,0,1-51.72,6.09,49.64,49.64,0,0,1-14.62-9.37c-1.71-1.57-3.36-3.21-5-4.84l-14.17-14.08-11.12-11-8.59-8.47-8.92-8.83L67.29,83,66.2,81.89Z" style="fill:#fff;stroke:#fff;stroke-miterlimit:10"/><path d="M158.9,317.29a158.4,158.4,0,1,1,158.4-158.4A158.4,158.4,0,0,1,158.9,317.29Zm0-299.92A141.53,141.53,0,1,0,300.42,158.9,141.53,141.53,0,0,0,158.9,17.37Z" style="fill:#fff;stroke:#fff;stroke-miterlimit:10"/></g></g></svg>