<svg xmlns="http://www.w3.org/2000/svg" width="159.193" height="32.499" viewBox="0 0 159.193 32.499">
  <g id="Groupe_16" data-name="Groupe 16" transform="translate(-124.807 -7.679)">
    <g id="Calque_2" data-name="Calque 2" transform="translate(130.648 9.791)">
      <g id="Calque_1" data-name="Calque 1" transform="translate(-5.84 -2.113)">
        <g id="Calque_2-2" data-name="Calque 2" transform="translate(0 0)">
          <g id="Calque_1-2" data-name="Calque 1">
            <path id="Tracé_8" data-name="Tracé 8" d="M12.36,185.313c.954-.991,1.812-1.888,2.673-2.786l10.293-10.743,2.453-2.557a.506.506,0,0,1,.373-.216c1.126,0,2.249,0,3.5,0-.568.6-1.049,1.119-1.539,1.629L16.246,185.085a.586.586,0,0,1-.461.234C14.69,185.307,13.592,185.313,12.36,185.313Z" transform="translate(-11.515 -157.496)" fill="#fff"/>
            <path id="Tracé_9" data-name="Tracé 9" d="M235.925,102.5l-3.1,3.244q-5.687,5.951-11.367,11.911a1.517,1.517,0,0,1-1.285.558c-.928-.049-1.861-.014-2.872-.014a12.877,12.877,0,0,1,1.257-1.381q6.764-7.091,13.548-14.175c.112-.117.209-.251.409-.249,1.126.005,2.253,0,3.379,0C235.9,102.427,235.914,102.461,235.925,102.5Z" transform="translate(-202.489 -95.416)" fill="#fff"/>
            <path id="Tracé_10" data-name="Tracé 10" d="M65.919,93.85c-1.481,1.545-2.872,3-4.265,4.45q-2.629,2.736-5.256,5.475a.853.853,0,0,1-.693.29c-1.031-.016-2.063-.007-3.09-.007-.063-.194.086-.26.166-.341q3.956-4.128,7.918-8.246l1.348-1.4c.1-.108.187-.218.367-.217C63.542,93.854,64.67,93.85,65.919,93.85Z" transform="translate(-49.012 -87.458)" fill="#fff"/>
            <path id="Tracé_11" data-name="Tracé 11" d="M106.1,157.47l-.307.32-1.306,1.363a14.208,14.208,0,0,1-23.073,14.5L80,175.14a16.268,16.268,0,0,0,26.107-17.67Z" transform="translate(-74.545 -146.743)" fill="#fff"/>
            <path id="Tracé_12" data-name="Tracé 12" d="M3.827,23.263A14.207,14.207,0,0,1,27.505,7.68l1.431-1.5A16.26,16.26,0,0,0,2.351,24.8Z" transform="translate(0.044 -0.051)" fill="#fff"/>
          </g>
        </g>
      </g>
    </g>
    <text id="Xrapid.space" transform="translate(166 30)" fill="#fff" font-size="18" font-family="Rubik-Bold, Rubik" font-weight="700"><tspan x="0" y="0">Xrapid.space</tspan></text>
  </g>
</svg>
