<svg xmlns="http://www.w3.org/2000/svg" viewBox="0 0 1800.18 329.92"><title>Fichier 9</title><g id="Calque_2" data-name="Calque 2"><g id="Calque_1-2" data-name="Calque 1"><path d="M8.55,282.29,35.67,254q52.22-54.49,104.44-109,12.45-13,24.91-25.95c1-1.1,2-2.2,3.79-2.2,11.42,0,22.84,0,35.49,0-5.75,6.1-10.64,11.35-15.61,16.53Q118.34,206.69,48,280c-1.32,1.38-2.52,2.4-4.67,2.38C32.19,282.23,21.05,282.29,8.55,282.29Z" style="fill:#fff"/><path d="M339.24,71.87l-31.47,32.92q-57.7,60.39-115.34,120.86c-3.76,4-7.43,6-13,5.66-9.42-.49-18.88-.13-29.14-.13,4-5.54,8.57-9.63,12.76-14q68.66-72,137.46-143.83c1.14-1.19,2.13-2.54,4.14-2.53,11.43.06,22.86,0,34.29,0C339,71.17,339.13,71.52,339.24,71.87Z" style="fill:#fff"/><path d="M171.53,64.9c-15,15.67-29.15,30.42-43.29,45.14q-26.67,27.78-53.32,55.56a8.64,8.64,0,0,1-7,2.94c-10.46-.16-20.93-.06-31.36-.06-.63-2,.87-2.65,1.68-3.49q40.14-41.88,80.35-83.69,6.84-7.12,13.68-14.25c1-1.08,1.9-2.2,3.73-2.19C147.4,64.93,158.85,64.9,171.53,64.9Z" style="fill:#fff"/><path d="M320.19,108.88l-3.12,3.26L303.83,126a144,144,0,0,1,5.35,39c0,79.52-64.7,144.22-144.22,144.22a143.64,143.64,0,0,1-95.25-36l-14.42,15a165.07,165.07,0,0,0,264.9-179.3Z" style="fill:#fff"/><path d="M39.25,235.56A143.26,143.26,0,0,1,20.74,165C20.74,85.44,85.44,20.74,165,20.74A144.06,144.06,0,0,1,279.51,77.45L294,62.25A165,165,0,0,0,24.27,251.19Z" style="fill:#fff"/><path d="M511.43,250.57l-41.8-58.52-41.36,58.52H395.71L452.91,172,398.79,96.57h32.34l39.38,54.78,38.94-54.78h31l-53.9,74.36,57.86,79.64Z" style="fill:#fff"/><path d="M630,131.77V158a34.91,34.91,0,0,0-6.38-.66c-20.9,0-34.1,12.32-34.1,36.3v57H562V133.09h26.18v17.16C596.13,137.93,610.43,131.77,630,131.77Z" style="fill:#fff"/><path d="M751,181.71v68.86h-26v-14.3c-6.6,10.12-19.36,15.84-37,15.84-26.84,0-43.78-14.74-43.78-35.2,0-19.58,13.2-35,48.84-35h30.36v-1.76c0-16.06-9.68-25.52-29.26-25.52-13.2,0-26.84,4.4-35.64,11.66l-10.78-20c12.54-9.68,30.8-14.52,49.72-14.52C731.43,131.77,751,147.83,751,181.71Zm-27.5,32.12V200.19H695.13c-18.7,0-23.76,7-23.76,15.62,0,9.9,8.36,16.28,22.44,16.28C707.23,232.09,718.89,225.93,723.51,213.83Z" style="fill:#fff"/><path d="M911,191.83c0,36.52-25.3,60.28-59.62,60.28-15,0-28.16-5.06-37.62-15.84v57h-27.5V133.09h26.18v15.4c9.24-11.22,22.88-16.72,38.94-16.72C885.65,131.77,911,155.53,911,191.83Zm-27.94,0c0-22.44-15-36.74-34.76-36.74s-35,14.3-35,36.74,15.18,36.74,35,36.74S883,214.27,883,191.83Z" style="fill:#fff"/><path d="M933.39,97.23c0-9.24,7.48-16.5,17.6-16.5s17.6,6.82,17.6,15.84c0,9.68-7.26,17.16-17.6,17.16C940.87,113.73,933.39,106.47,933.39,97.23Zm3.74,35.86h27.5V250.57h-27.5Z" style="fill:#fff"/><path d="M1115.77,87.33V250.57h-26.4V235.39c-9.24,11.22-22.88,16.72-38.94,16.72-34.1,0-59.4-23.76-59.4-60.28s25.3-60.06,59.4-60.06c15.18,0,28.6,5.06,37.84,15.84V87.33Zm-27.06,104.5c0-22.44-15.18-36.74-35-36.74s-35,14.3-35,36.74,15.18,36.74,35,36.74S1088.71,214.27,1088.71,191.83Z" style="fill:#fff"/><path d="M1146.56,242a9.25,9.25,0,0,1,18.49,0,9.25,9.25,0,1,1-18.49,0Z" style="fill:#fff"/><path d="M1184.18,236.71l5.06-8.8c8.8,7.48,24.42,13.86,41.36,13.86,24.2,0,33.88-8.58,33.88-21.56,0-33.44-76.12-8.8-76.12-53.9,0-17.38,14.52-31.46,43.56-31.46,14.52,0,30.36,4.4,39.38,11.22l-5.06,8.8c-9.68-7-22.22-10.34-34.54-10.34-22.44,0-32.34,9.24-32.34,21.56,0,34.54,76.12,10.12,76.12,53.9,0,18.7-16.06,31.46-45.32,31.46C1211.24,251.45,1193.2,245.07,1184.18,236.71Z" style="fill:#fff"/><path d="M1420.68,193.15c0,34.54-24.42,58.3-56.76,58.3-20.24,0-37.4-9.9-46.64-27.06v68.86h-11V135.73h10.56v27.06c9-17.6,26.4-27.94,47.08-27.94C1396.26,134.85,1420.68,158.83,1420.68,193.15Zm-11,0c0-28.82-20-48.4-46.42-48.4s-46.2,19.58-46.2,48.4,19.8,48.4,46.2,48.4S1409.68,222,1409.68,193.15Z" style="fill:#fff"/><path d="M1537.28,177.75v72.82h-10.56V230.11c-7.26,13.2-21.34,21.34-41.36,21.34-25.74,0-41.36-13.2-41.36-32.78,0-17.38,11-32.12,42.9-32.12h39.38v-9.24c0-21.34-11.66-32.78-34.1-32.78-15.84,0-30.14,5.94-39.6,14.52l-5.5-7.92c11.44-10.12,28.16-16.28,46-16.28C1521.44,134.85,1537.28,149.37,1537.28,177.75Zm-11,38.94V195.13h-39.16c-23.76,0-32.12,9.9-32.12,23.1,0,15,11.66,24.2,31.9,24.2C1506.26,242.43,1519.68,233.19,1526.28,216.69Z" style="fill:#fff"/><path d="M1570.28,193.15c0-34.32,24.42-58.3,58.08-58.3,18.26,0,34.1,7,43.56,21.12l-8.14,5.94c-8.36-11.66-21.12-17.16-35.42-17.16-27.06,0-46.86,19.36-46.86,48.4s19.8,48.4,46.86,48.4c14.3,0,27.06-5.5,35.42-17.16l8.14,5.94c-9.46,13.86-25.3,21.12-43.56,21.12C1594.7,251.45,1570.28,227.25,1570.28,193.15Z" style="fill:#fff"/><path d="M1800,195.79h-98.78c1.1,27.28,21.12,45.76,48.62,45.76,14.52,0,27.94-5.28,36.74-16.06l6.38,7.26c-10.12,12.32-26,18.7-43.34,18.7-34.76,0-59.18-24.2-59.18-58.3s23.54-58.3,55-58.3,54.78,23.76,54.78,57.86C1800.18,193.59,1800,194.69,1800,195.79Zm-98.56-8.58h88c-1.54-24.86-19.58-42.68-44-42.68S1703.16,162.13,1701.4,187.21Z" style="fill:#fff"/></g></g></svg>