<svg xmlns="http://www.w3.org/2000/svg" viewBox="0 0 1195.21 220"><title>Fichier 11</title><g id="Calque_2" data-name="Calque 2"><g id="Calque_1-2" data-name="Calque 1"><path d="M128.91,10.1V111.72q0,17.4-7.79,30.51a50.68,50.68,0,0,1-22.5,20.09q-14.72,7-34.8,7-30.29,0-47.05-15.52T0,111.29V10.1H33.19v96.14q0,18.16,7.3,26.64t24.17,8.49q16.33,0,23.69-8.54T95.71,106V10.1Z" style="fill:#fff"/><path d="M217.58,143.19q8.59,0,20.63-3.76v24.38Q226,169.3,208.13,169.3q-19.66,0-28.63-9.94t-9-29.81V71.65H154.85V57.79l18-11,9.45-25.35h20.95V47.05h33.62v24.6H203.29v57.9q0,7,3.92,10.31T217.58,143.19Z" style="fill:#fff"/><path d="M263.29,16q0-16,17.83-16T299,16q0,7.63-4.46,11.87t-13.37,4.24Q263.29,32.12,263.29,16Zm34.16,151.14H264.68V47.05h32.76Z" style="fill:#fff"/><path d="M366.79,167.15H334V0h32.76Z" style="fill:#fff"/><path d="M402,16Q402,0,419.8,0t17.83,16q0,7.63-4.46,11.87T419.8,32.12Q402,32.12,402,16Zm34.16,151.14H403.36V47.05h32.76Z" style="fill:#fff"/><path d="M523.29,143.19q8.59,0,20.63-3.76v24.38q-12.25,5.48-30.08,5.48-19.66,0-28.63-9.94t-9-29.81V71.65H460.56V57.79l18-11,9.45-25.35H509V47.05h33.62v24.6H509v57.9q0,7,3.92,10.31T523.29,143.19Z" style="fill:#fff"/><path d="M553.21,47.05h35.88l22.67,67.57a93.81,93.81,0,0,1,4,20.84h.64A92,92,0,0,1,621,114.62l22.24-67.57h35.13L627.55,182.51q-7,18.8-19.93,28.14T577.38,220a76.07,76.07,0,0,1-16.65-1.83v-26a56.06,56.06,0,0,0,12.89,1.4,23.28,23.28,0,0,0,15.2-5.32q6.5-5.32,10.15-16.06l1.93-5.91Z" style="fill:#fff"/><path d="M690.44,112.15v-8.81h51v8.81Z" style="fill:#fff"/><path d="M845.5,136.75q0,15.69-11.92,24.12t-33.84,8.43q-23.42,0-37.17-7.2V150.61a82,82,0,0,0,37.17,8.81q17.29,0,26.26-5.75t9-15.31a18.66,18.66,0,0,0-7.14-14.82q-7.15-6-23.47-11.82-17.51-6.34-24.6-10.9A34,34,0,0,1,769.07,90.5a25.89,25.89,0,0,1-3.6-14q0-13.1,11-20.73t30.78-7.63a92.16,92.16,0,0,1,35.88,7.09l-4,9.67q-17.19-7.09-31.9-7.09-14.29,0-22.67,4.73t-8.38,13.11q0,9.13,6.5,14.61t25.41,12.25q15.79,5.7,23,10.26a33.46,33.46,0,0,1,10.8,10.37A25.36,25.36,0,0,1,845.5,136.75Z" style="fill:#fff"/><path d="M924.4,169.3q-25,0-39.21-15.79t-14.18-44q0-29,14.72-45.17T926,48.13a81,81,0,0,1,29,5.26l-2.9,9.45q-15.15-5-26.32-5-21.49,0-32.55,13.27t-11.06,38.19q0,23.63,11.06,37t30.94,13.37a75.91,75.91,0,0,0,29.54-5.69v9.88Q942.55,169.3,924.4,169.3Z" style="fill:#fff"/><path d="M1055.4,167.15l-2.69-18.48h-.86q-8.81,11.28-18.1,16t-22,4.67q-17.19,0-26.75-8.81t-9.56-24.38q0-17.08,14.23-26.53t41.2-10l22.24-.64V91.2q0-16.65-6.77-25.14t-21.81-8.49q-16.22,0-33.62,9l-4-9.24q19.23-9,38-9,19.23,0,28.74,10t9.51,31.15v77.67Zm-43-7.52q18.69,0,29.49-10.69t10.8-29.7V107.74l-20.41.86q-24.6,1.18-35.07,7.68t-10.47,20.25q0,11,6.71,17T1012.43,159.63Z" style="fill:#fff"/><path d="M1184.68,167.15V91.42q0-17.62-7.41-25.62t-23-8q-20.95,0-30.67,10.58t-9.72,34.32v64.45h-10.63V50.38h9l2,16h.64q11.38-18.26,40.5-18.26,39.74,0,39.75,42.65v76.38Z" style="fill:#fff"/></g></g></svg>