<svg xmlns="http://www.w3.org/2000/svg" viewBox="0 0 1607.63 329.92"><title>Fichier 10</title><g id="Calque_2" data-name="Calque 2"><g id="Calque_1-2" data-name="Calque 1"><path d="M8.55,282.29,35.67,254,140.11,145q12.44-13,24.91-26c1.05-1.1,2-2.2,3.79-2.19,11.42,0,22.84,0,35.5,0-5.76,6.1-10.65,11.35-15.61,16.53Q118.34,206.69,48,280c-1.33,1.38-2.52,2.4-4.68,2.38C32.19,282.23,21,282.29,8.55,282.29Z" style="fill:#fff"/><path d="M339.24,71.87l-31.47,32.92q-57.71,60.39-115.34,120.86c-3.76,4-7.43,6-13,5.66-9.42-.49-18.89-.13-29.14-.13,4-5.53,8.57-9.63,12.75-14q68.66-72,137.47-143.83c1.14-1.19,2.12-2.54,4.13-2.53,11.43.06,22.86,0,34.29,0Z" style="fill:#fff"/><path d="M171.53,64.9c-15,15.67-29.14,30.42-43.28,45.15q-26.67,27.77-53.33,55.56a8.65,8.65,0,0,1-7,2.94c-10.46-.17-20.92-.07-31.35-.07-.64-2,.87-2.64,1.68-3.49q40.13-41.88,80.35-83.69,6.84-7.12,13.68-14.25c1-1.09,1.9-2.21,3.72-2.2C147.4,64.93,158.85,64.9,171.53,64.9Z" style="fill:#fff"/><path d="M320.19,108.88l-3.11,3.26L303.83,126a143.86,143.86,0,0,1,5.35,39c0,79.52-64.7,144.22-144.22,144.22a143.62,143.62,0,0,1-95.25-36l-14.42,15a165.06,165.06,0,0,0,264.9-179.3Z" style="fill:#fff"/><path d="M39.25,235.56A143.3,143.3,0,0,1,20.74,165C20.74,85.44,85.44,20.74,165,20.74a144.05,144.05,0,0,1,114.54,56.7L294,62.25a167.15,167.15,0,0,0-12.43-13.93A165,165,0,0,0,24.27,251.19Z" style="fill:#fff"/><path d="M541.33,97.48V199.1q0,17.4-7.79,30.51A50.68,50.68,0,0,1,511,249.7q-14.72,7-34.8,7-30.29,0-47.05-15.52t-16.76-42.49V97.48h33.19v96.14q0,18.16,7.3,26.64t24.17,8.49q16.33,0,23.69-8.54t7.36-26.8V97.48Z" style="fill:#fff"/><path d="M630,230.58q8.59,0,20.63-3.76V251.2q-12.25,5.48-30.08,5.48-19.66,0-28.63-9.94t-9-29.81V159H567.27V145.18l18-11,9.45-25.35h20.95v25.57h33.62V159H615.72v57.9q0,7,3.92,10.31T630,230.58Z" style="fill:#fff"/><path d="M675.71,103.39q0-16,17.83-16t17.83,16q0,7.63-4.46,11.87t-13.37,4.24Q675.71,119.5,675.71,103.39Zm34.16,151.14H677.11V134.44h32.76Z" style="fill:#fff"/><path d="M779.21,254.53H746.45V87.38h32.76Z" style="fill:#fff"/><path d="M814.39,103.39q0-16,17.83-16t17.83,16q0,7.63-4.46,11.87t-13.37,4.24Q814.39,119.5,814.39,103.39Zm34.16,151.14H815.78V134.44h32.76Z" style="fill:#fff"/><path d="M935.72,230.58q8.59,0,20.63-3.76V251.2q-12.25,5.48-30.08,5.48-19.66,0-28.63-9.94t-9-29.81V159H873V145.18l18-11,9.45-25.35h20.95v25.57h33.62V159H921.43v57.9q0,7,3.92,10.31T935.72,230.58Z" style="fill:#fff"/><path d="M965.63,134.44h35.88L1024.18,202a93.81,93.81,0,0,1,4,20.84h.64a92,92,0,0,1,4.62-20.84l22.24-67.57h35.13L1040,269.89q-7,18.8-19.93,28.14t-30.24,9.35a76.07,76.07,0,0,1-16.65-1.83v-26A56.06,56.06,0,0,0,986,281a23.28,23.28,0,0,0,15.2-5.32q6.5-5.32,10.15-16.06l1.93-5.91Z" style="fill:#fff"/><path d="M1102.86,199.53v-8.81h51v8.81Z" style="fill:#fff"/><path d="M1257.92,224.13q0,15.69-11.92,24.12t-33.84,8.43q-23.42,0-37.17-7.2V238a82,82,0,0,0,37.17,8.81q17.29,0,26.26-5.75t9-15.31a18.66,18.66,0,0,0-7.14-14.82q-7.15-6-23.47-11.82-17.51-6.34-24.6-10.9a34,34,0,0,1-10.69-10.31,25.89,25.89,0,0,1-3.6-14q0-13.1,11-20.73t30.78-7.63a92.16,92.16,0,0,1,35.88,7.09l-4,9.67q-17.19-7.09-31.9-7.09-14.29,0-22.67,4.73T1188.64,163q0,9.13,6.5,14.61t25.41,12.25q15.79,5.7,23,10.26a33.46,33.46,0,0,1,10.8,10.37A25.36,25.36,0,0,1,1257.92,224.13Z" style="fill:#fff"/><path d="M1336.82,256.68q-25,0-39.21-15.79t-14.18-44q0-29,14.72-45.17t40.28-16.17a81,81,0,0,1,29,5.26l-2.9,9.45q-15.15-5-26.32-5-21.49,0-32.55,13.27t-11.06,38.19q0,23.63,11.06,37T1336.61,247a75.91,75.91,0,0,0,29.54-5.69v9.88Q1355,256.68,1336.82,256.68Z" style="fill:#fff"/><path d="M1467.82,254.53l-2.69-18.48h-.86q-8.81,11.28-18.1,16t-22,4.67q-17.19,0-26.75-8.81t-9.56-24.38q0-17.08,14.23-26.53t41.2-10l22.24-.64v-7.73q0-16.65-6.77-25.14T1437,145q-16.22,0-33.62,9l-4-9.24q19.23-9,38-9,19.23,0,28.74,10t9.51,31.15v77.67Zm-43-7.52q18.69,0,29.49-10.69t10.8-29.7V195.13l-20.41.86q-24.6,1.18-35.07,7.68t-10.47,20.25q0,11,6.71,17T1424.85,247Z" style="fill:#fff"/><path d="M1597.1,254.53V178.8q0-17.62-7.41-25.62t-23-8q-20.95,0-30.67,10.58t-9.72,34.32v64.45h-10.63V137.77h9l2,16h.64q11.38-18.26,40.5-18.26,39.74,0,39.75,42.65v76.38Z" style="fill:#fff"/></g></g></svg>